# xmcd
#
# Track frame offsets: 
#        150
#        16500
#        31725
#        48588
#        63963
#        79713
#        94319
#        111517
#        129384
#        143859
#
# Disc length: 2095 seconds
#
# Revision: 0
# Processed by: cddbd v1.5.2PL0 Copyright (c) Steve Scherf et al.
# Submitted via: ExactAudioCopy v1.0b1
#
DISCID=7c082d0a
DTITLE=Kjell Gustavsson and the Rhythm 'n' Blues Orchestra - In the Ba
DTITLE=rn
DYEAR=2012
DGENRE=Blues
TTITLE0=One Step Forward
TTITLE1=I Can't Go I Can't Stay
TTITLE2=Got a Message
TTITLE3=In the Barn
TTITLE4=Would You Like To Play With Fire
TTITLE5=Working
TTITLE6=Think It's Gonna Be Alright
TTITLE7=Walk In the Harvest Moon
TTITLE8=This Train Won't Stop
TTITLE9=Saturday Night Boogie
EXTD=
EXTT0=
EXTT1=
EXTT2=
EXTT3=
EXTT4=
EXTT5=
EXTT6=
EXTT7=
EXTT8=
EXTT9=
PLAYORDER=
